<svg fill="#000000" xmlns="http://www.w3.org/2000/svg"  viewBox="0 0 16 16" width="64px" height="64px"><path d="M 6 1 A 0.50005 0.50005 0 0 0 5.6992188 1.0996094 L 3.6992188 2.5996094 A 0.50005 0.50005 0 0 0 3.5039062 2.9453125 L 3.0039062 7.4453125 A 0.50005 0.50005 0 0 0 3.0097656 7.5976562 L 4.0097656 12.597656 A 0.50005 0.50005 0 0 0 4.1464844 12.853516 L 6.1464844 14.853516 A 0.50005 0.50005 0 0 0 6.5 15 L 9.5 15 A 0.50005 0.50005 0 0 0 9.8535156 14.853516 L 11.853516 12.853516 A 0.50005 0.50005 0 0 0 11.990234 12.597656 L 12.990234 7.5976562 A 0.50005 0.50005 0 0 0 12.996094 7.4453125 L 12.496094 2.9453125 A 0.50005 0.50005 0 0 0 12.300781 2.5996094 L 10.300781 1.0996094 A 0.50005 0.50005 0 0 0 10 1 L 6 1 z M 7.140625 2 L 8.859375 2 L 8.109375 5 L 7.890625 5 L 7.140625 2 z M 6.1191406 2.0351562 L 7.015625 5.6210938 A 0.50005 0.50005 0 0 0 7.5 6 L 8.5 6 A 0.50005 0.50005 0 0 0 8.984375 5.6210938 L 9.8808594 2.0351562 L 11.527344 3.2695312 L 11.994141 7.4785156 L 11.845703 8.2226562 L 11.837891 8.2167969 L 9.2363281 12 L 6.7636719 12 L 4.1621094 8.2167969 L 4.1542969 8.2226562 L 4.0058594 7.4785156 L 4.4726562 3.2695312 L 6.1191406 2.0351562 z M 4.6582031 7.0253906 L 4.3417969 7.9746094 L 7.3417969 8.9746094 L 7.6582031 8.0253906 L 4.6582031 7.0253906 z M 11.341797 7.0253906 L 8.3417969 8.0253906 L 8.6582031 8.9746094 L 11.658203 7.9746094 L 11.341797 7.0253906 z M 4.6484375 10.689453 L 5.859375 12.451172 L 5.5195312 12.8125 L 4.9609375 12.253906 L 4.6484375 10.689453 z M 11.351562 10.689453 L 11.039062 12.253906 L 10.5 12.792969 L 10.148438 12.441406 L 11.351562 10.689453 z M 6.7167969 13 L 9.2929688 13 L 9.7929688 13.5 L 9.2929688 14 L 6.7070312 14 L 6.2265625 13.519531 L 6.7167969 13 z"/></svg>