<svg fill="#000000" xmlns="http://www.w3.org/2000/svg"  viewBox="0 0 16 16" width="64px" height="64px"><path d="M11.522,4.62c1.428-2.141,3.326-3.706,3.358-3.732l-0.629-0.777c-0.143,0.115-2.228,1.83-3.736,4.198	C9.73,4.117,9.003,4.04,8.5,4.014L8,4v0.01C7.173,4.043,6.326,4.16,5.52,4.376C4.01,1.968,1.893,0.228,1.749,0.111L1.12,0.889	c0.032,0.026,1.977,1.625,3.409,3.817C2.539,5.494,1,6.997,1,9.5C1,11.43,2.57,13,4.5,13h1.813L5.54,14.803l0.919,0.395L7.401,13	H7.5v2h1v-2h0.206l0.827,2.178l0.935-0.355L9.775,13H11.5c1.93,0,3.5-1.57,3.5-3.5C15,6.658,13.281,5.286,11.522,4.62z M8.24,5.004	c0.394,0.012,1.034,0.06,1.745,0.211C9.287,6.539,8.834,8.012,9,9.5V10c0,0.552-0.449,1-1,1s-1-0.448-1-1V9.469	c0.139-1.458-0.289-2.895-0.959-4.19C6.933,5.075,7.756,5.017,8.24,5.004z M4.5,12C3.122,12,2,10.879,2,9.5	c0-2.239,1.48-3.365,3.047-3.932c0.419,0.774,0.744,1.601,0.891,2.444C5.416,8.046,5,8.47,5,9H4v1h2c0,0.691,0.353,1.301,0.887,1.66	L6.742,12H4.5z M11.5,12H9.395L9.23,11.565C9.695,11.199,10,10.637,10,10h2V9h-1c0-0.533-0.42-0.958-0.945-0.989	c0.149-0.868,0.489-1.718,0.93-2.515C12.505,6.036,14,7.157,14,9.5C14,10.879,12.878,12,11.5,12z"/></svg>