<svg fill="#000000" xmlns="http://www.w3.org/2000/svg"  viewBox="0 0 16 16" width="64px" height="64px"><path d="M 8 1 L 6.9433594 2.6445312 L 5.53125 1.7109375 L 5 3 L 3 2 L 3.1386719 4.3183594 L 1.0566406 5.3476562 L 3 7 L 2 9 L 3.0839844 8.8164062 C 3.3558639 10.865276 4.3688213 12.391936 5.3925781 13.396484 C 5.9270088 13.920888 6.4627212 14.307933 6.90625 14.570312 C 7.1280144 14.701503 7.3264326 14.801709 7.4980469 14.873047 C 7.6696607 14.944385 7.7735388 15 8 15 C 8.2264612 15 8.330359 14.94439 8.5019531 14.873047 C 8.6735472 14.801707 8.8720243 14.701504 9.09375 14.570312 C 9.5372013 14.30793 10.073063 13.91893 10.607422 13.394531 C 11.625475 12.395456 12.633189 10.8814 12.912109 8.8496094 L 14 9 L 13 7 L 15 5 L 12 4 L 13 2 L 10 3 L 8 1 z M 4 6 L 12 6 L 12 8 L 4 8 L 4 6 z M 4.2011719 9 L 11.798828 9 C 11.495093 10.601369 10.745211 11.858319 9.90625 12.681641 C 9.434734 13.144367 8.9603299 13.487462 8.5859375 13.708984 C 8.3987413 13.819746 8.2356208 13.900791 8.1191406 13.949219 C 8.071161 13.969166 8.0311891 13.977006 8 13.984375 C 7.9688126 13.977007 7.9288516 13.969169 7.8808594 13.949219 C 7.7643486 13.900787 7.6012981 13.819748 7.4140625 13.708984 C 7.0395913 13.487458 6.5653193 13.144362 6.09375 12.681641 C 5.2546945 11.858328 4.5045679 10.60131 4.2011719 9 z M 5 10 C 5 10 5.5 11 6.5 11 C 6.776 11 7 10.776 7 10.5 C 7 10 5 10 5 10 z M 11 10 C 11 10 9 10 9 10.5 C 9 10.776 9.224 11 9.5 11 C 10.5 11 11 10 11 10 z"/></svg>