<svg fill="#000000" xmlns="http://www.w3.org/2000/svg"  viewBox="0 0 16 16" width="64px" height="64px"><path d="M 8 0 C 5.8256357 0 4.5780899 1.0954014 3.9824219 2.1679688 C 3.4515528 3.1238583 3.4400574 3.8786169 3.4296875 4.0742188 C 3.0431194 4.2931 2.6734231 4.5495228 2.4492188 4.9082031 C 2.1642032 5.3641683 1.9960936 5.8720924 1.9960938 6.3671875 C 1.9960938 7.3034935 2.3478111 7.917295 2.7929688 8.265625 C 3.2381263 8.613955 3.6620215 8.7616079 4.0175781 9.0917969 A 0.50005 0.50005 0 0 0 4.0253906 9.0976562 C 4.1816087 9.2374444 4.4070787 9.6697792 4.6015625 10.236328 C 4.7960463 10.802877 4.982637 11.493697 5.2167969 12.171875 C 5.4509568 12.850053 5.7290821 13.520079 6.1582031 14.058594 C 6.5873267 14.597107 7.2210592 15 8 15 C 8.7789408 15 9.4126758 14.597108 9.8417969 14.058594 C 10.270918 13.520079 10.549043 12.850053 10.783203 12.171875 C 11.017363 11.493697 11.203953 10.802877 11.398438 10.236328 C 11.59292 9.6697792 11.818391 9.2374444 11.974609 9.0976562 A 0.50005 0.50005 0 0 0 11.982422 9.0917969 C 12.337979 8.7616079 12.761874 8.613955 13.207031 8.265625 C 13.652189 7.917295 14.003906 7.3034935 14.003906 6.3671875 C 14.003906 5.8698553 13.832529 5.3656419 13.546875 4.9140625 C 13.332401 4.5750087 12.979005 4.3385936 12.625 4.1171875 C 12.624446 4.1116275 12.623647 4.1092976 12.623047 4.1035156 C 12.610814 3.9851001 12.589069 3.8204612 12.548828 3.6230469 C 12.468346 3.2282181 12.317422 2.704228 12.019531 2.1679688 C 11.42375 1.09545 10.174364 -2.9605947e-16 8 0 z M 8 1 C 9.8586357 1 10.679313 1.8148624 11.144531 2.6523438 C 11.377141 3.0710844 11.502841 3.5008444 11.568359 3.8222656 C 11.601119 3.9829763 11.619506 4.1165414 11.628906 4.2070312 C 11.633606 4.2522763 11.637172 4.2864852 11.638672 4.3085938 C 11.639386 4.3196477 11.638429 4.3289794 11.638672 4.3339844 L 11.958984 4.7871094 C 12.232117 4.8923688 12.506076 5.1407982 12.701172 5.4492188 C 12.896268 5.7576393 13.003906 6.1195197 13.003906 6.3671875 C 13.003906 7.1058815 12.858436 7.2683456 12.589844 7.4785156 C 12.321996 7.6881026 11.818622 7.8834965 11.306641 8.3574219 C 10.875503 8.7449999 10.661763 9.2966841 10.451172 9.9101562 C 10.240025 10.525139 10.056606 11.212256 9.8378906 11.845703 C 9.6191755 12.47915 9.3608164 13.05628 9.0585938 13.435547 C 8.7563709 13.814814 8.4620592 14 8 14 C 7.5379408 14 7.243629 13.814814 6.9414062 13.435547 C 6.6391835 13.05628 6.3808245 12.47915 6.1621094 11.845703 C 5.9433943 11.212256 5.759938 10.525139 5.5488281 9.9101562 C 5.3382366 9.2966842 5.1244972 8.7449999 4.6933594 8.3574219 C 4.181378 7.8834965 3.6780035 7.6881026 3.4101562 7.4785156 C 3.141564 7.2683456 2.9960938 7.1058815 2.9960938 6.3671875 C 2.9960938 6.1172826 3.1033904 5.7470349 3.296875 5.4375 C 3.4903596 5.1279651 3.760414 4.8860122 4.0292969 4.7910156 A 0.50005 0.50005 0 0 0 4.3613281 4.3339844 C 4.3613281 4.3339844 4.3903871 3.4897763 4.8554688 2.6523438 C 5.3205508 1.814911 6.1413643 1 8 1 z M 6.5136719 3.6660156 C 6.3154844 3.7250781 6.1685313 4.0288281 6.0507812 4.2988281 C 5.8937812 4.7788281 5.5808437 5.1389062 5.2148438 5.3789062 C 4.9538437 5.4989063 4.6921563 5.559375 4.5351562 5.859375 C 4.3261563 6.460375 4.795625 7 5.265625 7 C 6.048625 7 6.5190312 6.2199062 6.8320312 5.3789062 C 6.9360313 4.9589063 7.1985156 3.9372656 6.7285156 3.6972656 C 6.6502656 3.6522656 6.5797344 3.6463281 6.5136719 3.6660156 z M 9.4863281 3.6660156 C 9.4202656 3.6463281 9.3497344 3.6522656 9.2714844 3.6972656 C 8.8014844 3.9372656 9.0629687 4.9589062 9.1679688 5.3789062 C 9.4809688 6.2199063 9.951375 7 10.734375 7 C 11.204375 7 11.673844 6.460375 11.464844 5.859375 C 11.307844 5.559375 11.046156 5.4989062 10.785156 5.3789062 C 10.419156 5.1389062 10.106219 4.7798281 9.9492188 4.2988281 C 9.8314687 4.0288281 9.6845156 3.7250781 9.4863281 3.6660156 z M 7.9863281 6.1191406 C 7.8003281 6.1191406 6.9321875 7.7949219 7.2421875 7.7949219 L 8.7324219 7.7949219 C 9.1044219 7.7949219 8.2353281 6.1191406 7.9863281 6.1191406 z M 8 9 C 7.3 9 7.0058594 9.4290938 7.0058594 9.6210938 C 6.9488594 10.004094 7.2984688 10.570406 7.3554688 11.566406 C 7.4124688 12.332406 7.593 13 8 13 C 8.407 13 8.5875312 12.332406 8.6445312 11.566406 C 8.7015313 10.570406 9.0511406 10.004094 8.9941406 9.6210938 C 8.9941406 9.4290937 8.7 9 8 9 z"/></svg>