<svg width="21" height="21" viewBox="0 0 21 21" fill="none" xmlns="http://www.w3.org/2000/svg">
<rect x="5.03644" y="5.9068" width="8.70933" height="8.49682" fill="#DAF0FF"/>
<path d="M8.72033 0.605469C8.26519 0.605469 7.85393 0.990048 7.85393 1.48919V2.37291H4.17177C3.81553 2.37291 3.52197 2.67233 3.52197 3.0357V5.245C3.52197 5.60837 3.81553 5.90779 4.17177 5.90779H4.82156V18.9427C4.82156 19.306 5.11512 19.6055 5.47136 19.6055H15.0017C15.3579 19.6055 15.6515 19.306 15.6515 18.9427V5.90779H16.3013C16.6575 5.90779 16.9511 5.60837 16.9511 5.245V3.0357C16.9511 2.67233 16.6575 2.37291 16.3013 2.37291H12.6191V1.48919C12.6191 0.990039 12.2078 0.605469 11.7527 0.605469H8.72033ZM8.72033 1.04733H11.7527C11.9521 1.04733 12.1859 1.25397 12.1859 1.48919V2.37291H8.28713V1.48919C8.28713 1.25396 8.52091 1.04733 8.72033 1.04733ZM4.17177 2.81477H16.3013C16.425 2.81477 16.5179 2.90948 16.5179 3.0357V5.245C16.5179 5.37122 16.425 5.46593 16.3013 5.46593H4.17177C4.04802 5.46593 3.95517 5.37122 3.95517 5.245V3.0357C3.95517 2.90948 4.04802 2.81477 4.17177 2.81477ZM5.25476 5.90779H15.2183V18.9427C15.2183 19.0689 15.1254 19.1636 15.0017 19.1636H5.47136C5.34761 19.1636 5.25476 19.0689 5.25476 18.9427V5.90779ZM7.63734 8.11709C7.51771 8.11709 7.42074 8.216 7.42074 8.33802V16.7334C7.42074 16.8554 7.51771 16.9543 7.63734 16.9543C7.75696 16.9543 7.85393 16.8554 7.85393 16.7334V8.33802C7.85393 8.216 7.75696 8.11709 7.63734 8.11709ZM10.2365 8.11709C10.1169 8.11709 10.0199 8.216 10.0199 8.33802V16.7334C10.0199 16.8554 10.1169 16.9543 10.2365 16.9543C10.3561 16.9543 10.4531 16.8554 10.4531 16.7334V8.33802C10.4531 8.216 10.3561 8.11709 10.2365 8.11709ZM12.8357 8.11709C12.7161 8.11709 12.6191 8.216 12.6191 8.33802V16.7334C12.6191 16.8554 12.7161 16.9543 12.8357 16.9543C12.9553 16.9543 13.0523 16.8554 13.0523 16.7334V8.33802C13.0523 8.216 12.9553 8.11709 12.8357 8.11709Z" fill="black"/>
</svg>
